<svg width="200" height="200" viewBox="0 0 200 200" fill="none" xmlns="http://www.w3.org/2000/svg">
	<g clip-path="url(#clip0_405_2)">
		<rect width="200" height="200" rx="20" fill="#00D8FF" />
		<path
			d="M93.24 159.92C83.5333 159.92 75.0533 158.533 67.8 155.76C60.6533 152.88 54.04 148.347 47.96 142.16L67.96 122.16C72.12 126.107 76.4933 129.147 81.08 131.28C85.6667 133.307 90.5733 134.32 95.8 134.32C100.173 134.32 103.48 133.68 105.72 132.4C107.96 131.013 109.08 129.147 109.08 126.8C109.08 124.453 108.12 122.533 106.2 121.04C104.28 119.44 101.72 118.053 98.52 116.88C95.4267 115.6 91.96 114.32 88.12 113.04C84.3867 111.76 80.6533 110.213 76.92 108.4C73.1867 106.587 69.72 104.4 66.52 101.84C63.4267 99.1733 60.92 95.92 59 92.08C57.08 88.1333 56.12 83.3333 56.12 77.68C56.12 70.32 57.88 63.9733 61.4 58.64C64.92 53.3067 69.88 49.2533 76.28 46.48C82.68 43.6 90.2 42.16 98.84 42.16C107.373 42.16 115.267 43.5467 122.52 46.32C129.88 48.9867 135.96 52.8267 140.76 57.84L120.6 77.84C117.08 74.4267 113.56 71.92 110.04 70.32C106.52 68.6133 102.68 67.76 98.52 67.76C95.2133 67.76 92.5467 68.2933 90.52 69.36C88.6 70.4267 87.64 72.0267 87.64 74.16C87.64 76.4 88.6 78.2667 90.52 79.76C92.44 81.1467 94.9467 82.4267 98.04 83.6C101.24 84.7733 104.707 86 108.44 87.28C112.28 88.56 116.067 90.1067 119.8 91.92C123.533 93.6267 126.947 95.8667 130.04 98.64C133.24 101.307 135.8 104.667 137.72 108.72C139.64 112.773 140.6 117.68 140.6 123.44C140.6 135.067 136.44 144.08 128.12 150.48C119.907 156.773 108.28 159.92 93.24 159.92Z"
			fill="black"
		/>
		<path
			d="M127.38 55.7973C127.136 55.7131 126.882 55.6335 126.621 55.5582C126.664 55.3832 126.704 55.2105 126.739 55.0407C127.313 52.2525 126.938 50.0064 125.655 49.2669C124.425 48.5578 122.414 49.2971 120.383 51.0647C120.188 51.2346 119.992 51.4146 119.796 51.6032C119.666 51.4784 119.536 51.3578 119.406 51.2425C117.277 49.3525 115.144 48.5561 113.863 49.2977C112.634 50.0089 112.27 52.1205 112.787 54.7628C112.837 55.018 112.896 55.2786 112.962 55.5436C112.66 55.6293 112.368 55.7207 112.089 55.8179C109.594 56.688 108 58.0516 108 59.466C108 60.9268 109.711 62.392 112.31 63.2804C112.515 63.3505 112.728 63.4168 112.947 63.4797C112.876 63.7663 112.814 64.0472 112.762 64.3211C112.269 66.9176 112.654 68.9793 113.88 69.6859C115.145 70.4157 117.269 69.6656 119.337 67.8578C119.501 67.7149 119.665 67.5633 119.829 67.4045C120.042 67.6096 120.255 67.8037 120.466 67.9858C122.47 69.7097 124.448 70.4058 125.672 69.6971C126.936 68.9653 127.347 66.7505 126.814 64.0559C126.773 63.8501 126.726 63.6399 126.672 63.4259C126.822 63.3818 126.968 63.3363 127.111 63.2889C129.813 62.3936 131.571 60.9463 131.571 59.466C131.571 58.0465 129.926 56.6737 127.38 55.7973ZM126.794 62.3331C126.665 62.3758 126.533 62.417 126.398 62.457C126.1 61.5126 125.697 60.5084 125.205 59.4709C125.675 58.458 126.062 57.4667 126.352 56.5284C126.593 56.5982 126.827 56.6718 127.052 56.7494C129.234 57.5003 130.564 58.6105 130.564 59.466C130.564 60.3772 129.127 61.56 126.794 62.3331ZM125.826 64.2515C126.062 65.443 126.096 66.5203 125.939 67.3624C125.799 68.1191 125.517 68.6237 125.168 68.8257C124.425 69.2557 122.836 68.6968 121.123 67.2225C120.927 67.0535 120.729 66.8731 120.53 66.6821C121.194 65.9557 121.858 65.1112 122.506 64.1734C123.646 64.0723 124.722 63.907 125.698 63.6813C125.747 63.8752 125.789 64.0655 125.826 64.2515ZM116.036 68.7514C115.31 69.0077 114.732 69.0151 114.383 68.8136C113.639 68.3848 113.33 66.7294 113.752 64.5089C113.8 64.2546 113.858 63.9934 113.924 63.7264C114.889 63.9399 115.958 64.0935 117.1 64.1861C117.752 65.1039 118.435 65.9474 119.124 66.686C118.973 66.8312 118.824 66.9694 118.675 67.0996C117.76 67.899 116.844 68.4661 116.036 68.7514ZM112.636 62.3276C111.486 61.9347 110.537 61.4242 109.887 60.867C109.302 60.3663 109.007 59.8693 109.007 59.466C109.007 58.6077 110.287 57.5129 112.421 56.7688C112.68 56.6785 112.951 56.5934 113.232 56.5135C113.527 57.473 113.914 58.4761 114.381 59.4905C113.908 60.5199 113.515 61.539 113.218 62.5097C113.017 62.4521 112.823 62.3914 112.636 62.3276ZM113.776 54.5694C113.333 52.3055 113.627 50.5977 114.367 50.1692C115.156 49.7127 116.899 50.3636 118.737 51.9955C118.855 52.0998 118.973 52.2089 119.091 52.3219C118.406 53.0573 117.729 53.8945 117.083 54.8068C115.974 54.9095 114.913 55.0746 113.938 55.2956C113.876 55.0488 113.822 54.8064 113.776 54.5694ZM123.943 57.08C123.71 56.6772 123.47 56.2838 123.226 55.9012C123.978 55.9963 124.699 56.1225 125.376 56.2769C125.172 56.928 124.919 57.6088 124.621 58.3066C124.407 57.9007 124.181 57.4914 123.943 57.08ZM119.797 53.0415C120.261 53.5447 120.726 54.1065 121.184 54.716C120.723 54.6943 120.256 54.6829 119.786 54.6829C119.319 54.6829 118.856 54.694 118.398 54.7154C118.856 54.1115 119.325 53.5505 119.797 53.0415ZM115.624 57.087C115.391 57.491 115.169 57.8981 114.959 58.3059C114.665 57.6104 114.414 56.9266 114.21 56.2663C114.882 56.1158 115.599 55.9927 116.347 55.8995C116.099 56.2856 115.858 56.6818 115.624 57.0869V57.087ZM116.368 63.1043C115.596 63.0182 114.868 62.9014 114.196 62.7551C114.404 62.083 114.66 61.3845 114.96 60.6741C115.171 61.0817 115.394 61.4889 115.628 61.8938H115.628C115.867 62.3062 116.114 62.7103 116.368 63.1043ZM119.825 65.9614C119.347 65.4465 118.871 64.8769 118.406 64.2642C118.858 64.2819 119.318 64.2909 119.786 64.2909C120.266 64.2909 120.741 64.2801 121.208 64.2593C120.749 64.883 120.286 65.4535 119.825 65.9614ZM124.631 60.6379C124.946 61.356 125.211 62.0508 125.422 62.7115C124.739 62.8674 124.001 62.9929 123.224 63.0863C123.468 62.6985 123.71 62.2984 123.947 61.8868C124.187 61.4705 124.415 61.0535 124.631 60.6379ZM123.075 61.3838C122.706 62.0227 122.328 62.6325 121.944 63.2082C121.245 63.2582 120.522 63.284 119.786 63.284C119.052 63.284 118.339 63.2612 117.651 63.2166C117.252 62.6334 116.865 62.0217 116.499 61.3893H116.499C116.134 60.7586 115.798 60.1226 115.494 59.4901C115.798 58.8562 116.133 58.2195 116.496 57.5899L116.496 57.5901C116.86 56.9588 117.243 56.3501 117.639 55.7705C118.34 55.7175 119.059 55.6899 119.786 55.6899H119.786C120.515 55.6899 121.235 55.7178 121.936 55.7712C122.326 56.3466 122.706 56.9533 123.072 57.5846C123.441 58.223 123.781 58.8555 124.088 59.4758C123.782 60.1068 123.443 60.7457 123.075 61.3838ZM125.152 50.1392C125.941 50.5944 126.248 52.4302 125.752 54.8374C125.721 54.991 125.685 55.1475 125.647 55.306C124.669 55.0804 123.607 54.9125 122.495 54.8082C121.847 53.8859 121.176 53.0474 120.502 52.3214C120.683 52.1472 120.864 51.981 121.044 51.8242C122.785 50.3098 124.411 49.7119 125.152 50.1392ZM119.786 57.3611C120.948 57.3611 121.89 58.3035 121.89 59.466C121.89 60.6284 120.948 61.5708 119.786 61.5708C118.623 61.5708 117.681 60.6284 117.681 59.466C117.681 58.3035 118.623 57.3611 119.786 57.3611Z"
			fill="#00D8FF"
		/>
		<path
			d="M72 54C72 57.3137 69.3137 60 66 60H52.1098C46.6789 60 44.0423 53.3601 47.9937 49.6345L61.8839 36.538C65.7116 32.9291 72 35.6428 72 40.9036V54Z"
			fill="#00D8FF"
		/>
		<path d="M84.4908 127.895L65.9078 140.757L68.5293 160.163" stroke="#00D8FF" stroke-width="5" />
	</g>
	<defs>
		<clipPath id="clip0_405_2">
			<rect width="200" height="200" rx="20" fill="white" />
		</clipPath>
	</defs>
</svg>
